<?xml version="1.0" encoding="UTF-8"?>
<svg width="648px" height="146px" viewBox="0 0 648 146" version="1.1" xmlns="http://www.w3.org/2000/svg" xmlns:xlink="http://www.w3.org/1999/xlink">
    <title>rp-primary-logo</title>
    <g id="Page-1" stroke="none" stroke-width="1" fill="none" fill-rule="evenodd">
        <g id="rp-primary-logo" transform="translate(-1, 0)">
            <path d="M191.9906,90.3787 L198.8096,90.3787 L198.8096,70.0257 L193.6886,75.1467 C192.6016,76.2347 191.9906,77.7087 191.9906,79.2467 L191.9906,90.3787 Z M208.9046,66.2577 L198.8806,66.2577 L198.8806,45.5887 L208.9046,45.5887 C215.3246,45.5887 219.8196,50.2127 219.8196,55.2367 L219.8196,56.7507 C219.8196,61.7867 215.3246,66.2577 208.9046,66.2577 L208.9046,66.2577 Z M219.2096,71.0117 C218.5996,69.9787 217.7776,69.1577 216.8266,68.5357 C222.6256,66.6687 226.5106,62.6077 226.5106,56.6807 L226.5106,55.1667 C226.5106,46.8327 218.7286,42.1487 208.8456,42.1487 L191.9906,42.1487 L191.9906,69.7087 L207.4016,69.7087 C209.3146,69.7087 211.0876,70.7417 212.0496,72.4667 L221.7336,90.3787 L229.8556,90.3787 L219.2096,71.0117 Z M246.1473,86.8575 L246.1473,66.3985 L265.9363,66.3985 L265.9363,62.9605 L246.1473,62.9605 L246.1473,45.5175 L270.4323,45.5175 L270.4323,42.0795 L239.3283,42.0795 L239.3283,90.3085 L271.8643,90.3085 L271.8643,86.8575 L246.1473,86.8575 Z M298.8133,61.7864 C295.1273,60.2724 286.1953,56.8214 286.1953,52.1384 C286.1953,46.7624 292.2633,45.5884 297.3113,45.5884 C301.8183,45.5884 304.6823,46.5504 307.6163,48.1354 L309.7993,45.3184 C306.1723,43.3114 301.5363,42.1494 297.3813,42.1494 C287.1463,42.1494 279.8453,46.9734 279.8453,54.4154 C279.8453,61.2344 287.6863,64.3334 294.7173,67.7134 C301.0673,70.7424 305.9023,72.5264 305.9023,77.9014 C305.9023,84.4514 300.7263,86.9284 294.1773,86.9284 C290.2093,86.9284 285.5733,86.5174 281.2073,82.3854 L278.8243,84.9324 C284.3523,90.0264 289.8103,90.3084 294.2353,90.3084 C304.4003,90.3084 313.6143,85.1434 313.6143,77.2794 C313.6143,67.5024 306.1143,64.8144 298.8133,61.7864 M324.4596,90.308 L331.2786,90.308 L331.2786,42.079 L324.4596,42.079 L324.4596,90.308 Z M379.5083,67.7136 C379.5083,80.5196 370.4353,86.8576 361.5613,86.8576 L347.7113,86.8576 L347.7113,45.5176 L361.5613,45.5176 C370.4353,45.5176 379.5083,51.8556 379.5083,64.6736 L379.5083,67.7136 Z M361.4913,42.0796 L340.8213,42.0796 L340.8213,90.3086 L361.4913,90.3086 C374.1203,90.3086 386.2573,81.9036 386.2573,67.7136 L386.2573,64.6736 C386.2573,50.4826 374.1203,42.0796 361.4913,42.0796 L361.4913,42.0796 Z M402.6311,86.8575 L402.6311,66.3985 L422.4091,66.3985 L422.4091,62.9605 L402.6311,62.9605 L402.6311,45.5175 L426.9161,45.5175 L426.9161,42.0795 L395.8001,42.0795 L395.8001,90.3085 L428.3481,90.3085 L428.3481,86.8575 L402.6311,86.8575 Z M478.8894,42.0792 L478.8894,80.1792 L444.0294,42.0792 L437.8904,42.0792 L437.8904,90.3082 L441.3064,90.3082 L441.3064,49.2382 L478.8894,90.3082 L482.3054,90.3082 L482.3054,42.0792 L478.8894,42.0792 Z M490.486,42.0792 L490.486,45.5182 L508.292,45.5182 L508.292,90.3082 L515.111,90.3082 L515.111,45.5182 L532.917,45.5182 L532.917,42.0792 L490.486,42.0792 Z M543.8216,90.308 L550.6406,90.308 L550.6406,42.079 L543.8216,42.079 L543.8216,90.308 Z M573.2234,70.601 L581.6864,52.549 L590.1374,70.601 L573.2234,70.601 Z M584.2804,42.079 L582.8364,42.079 L560.1944,90.308 L563.9394,90.308 L571.5804,74.052 L591.7804,74.052 L599.4214,90.308 L606.9214,90.308 L584.2804,42.079 Z M623.2838,86.8575 L623.2838,42.0795 L616.4638,42.0795 L616.4638,90.3085 L649.0008,90.3085 L649.0008,86.8575 L623.2838,86.8575 Z M290.71796,121.4343 L290.7119,120.2353 C290.7069,119.2413 290.3949,118.4113 289.7759,117.7443 C289.1569,117.0783 288.1769,116.7483 286.8379,116.75422 L281.4899,116.7813 L281.5309,124.9173 L286.8789,124.8903 C288.1969,124.8843 289.1669,124.5543 289.7909,123.9033 C290.4139,123.2523 290.7229,122.4293 290.71796,121.4343 L290.71796,121.4343 Z M278.0719,114.0113 L287.2449,113.965124 C289.6219,113.9533 291.3699,114.5543 292.4879,115.7693 C293.6069,116.9843 294.1719,118.6843 294.1839,120.8673 C294.1949,123.0063 293.6459,124.6733 292.5399,125.8653 C291.4329,127.0603 289.6919,127.6633 287.3149,127.6753 L281.5449,127.7043 L281.5889,136.3583 L278.1859,136.3753 L278.0719,114.0113 Z M303.9684,113.8806 L318.0034,113.8096 L318.0174,116.5976 L307.3864,116.6506 L307.4204,123.4256 L316.3984,123.3796 L316.4124,126.1336 L307.4344,126.1796 L307.4704,133.4396 L318.2634,133.3846 L318.2784,136.1726 L304.0814,136.2446 L303.9684,113.8806 Z M340.98616,121.0182 L340.9801,119.9152 C340.9761,118.9232 340.6581,118.0972 340.0281,117.4412 C339.3981,116.7862 338.4031,116.4612 337.0411,116.4672 L331.8231,116.4942 L331.8631,124.4672 L337.0811,124.4412 C338.4431,124.4342 339.4351,124.1112 340.0591,123.4702 C340.6821,122.8292 340.9911,122.0122 340.98616,121.0182 L340.98616,121.0182 Z M328.4051,113.7572 L337.3191,113.711018 C339.6741,113.6992 341.4431,114.2792 342.6271,115.4512 C343.8101,116.6222 344.4081,118.2782 344.4191,120.4172 C344.4271,122.0382 344.1101,123.3792 343.4661,124.4412 C342.8241,125.5032 341.8551,126.2642 340.5611,126.7242 L345.3081,136.0352 L341.6461,136.0532 L337.1281,127.1952 L331.8771,127.2212 L331.9221,136.1022 L328.5191,136.1212 L328.4051,113.7572 Z M354.9828,113.6215 L368.6278,113.5525 L368.6428,116.4055 L358.4008,116.4575 L358.4358,123.4255 L366.9928,123.3815 L367.0078,126.2665 L358.4508,126.3105 L358.4998,135.9685 L355.0958,135.9855 L354.9828,113.6215 Z M393.5497,125.8725 L393.5357,123.1505 C393.5237,120.5795 392.9727,118.7115 391.8867,117.5515 C390.8007,116.3905 389.1667,115.8155 386.9837,115.825372 C384.8017,115.8375 383.1677,116.4285 382.0837,117.6015 C380.9977,118.7725 380.4627,120.6445 380.4747,123.2155 L380.4887,125.9375 C380.5017,128.5315 381.0567,130.4355 382.1547,131.6505 C383.2517,132.8655 384.8907,133.4685 387.0737,133.457648 C389.2557,133.4465 390.8837,132.8275 391.9577,131.6015 C393.0317,130.3745 393.5627,128.4665 393.5497,125.8725 M377.0137,124.5955 C376.9927,120.4255 377.8257,117.4665 379.5137,115.7175 C381.1997,113.9695 383.6857,113.0875 386.9707,113.07028 C390.2547,113.0545 392.7437,113.9115 394.4377,115.6415 C396.1317,117.3735 396.9897,120.3235 397.0107,124.4935 C397.0327,128.7075 396.2047,131.7095 394.5287,133.5005 C392.8517,135.2925 390.3717,136.1955 387.0877,136.2115 C383.8037,136.2285 381.3087,135.3505 379.6037,133.5775 C377.8987,131.8015 377.0357,128.8095 377.0137,124.5955 M419.93896,120.6181 L419.9329,119.5151 C419.9289,118.5231 419.6109,117.6971 418.9809,117.0411 C418.3509,116.3861 417.3559,116.0611 415.9939,116.0671 L410.7759,116.0941 L410.8159,124.0671 L416.0339,124.0411 C417.3959,124.0341 418.3879,123.7111 419.0119,123.0701 C419.6349,122.4291 419.9439,121.6121 419.93896,120.6181 L419.93896,120.6181 Z M407.3579,113.3551 L416.2719,113.310887 C418.6269,113.2981 420.3959,113.8791 421.5799,115.0501 C422.7629,116.2221 423.3609,117.8781 423.3719,120.0171 C423.3799,121.6381 423.0629,122.9791 422.4189,124.0411 C421.7769,125.1031 420.8079,125.8641 419.5139,126.3241 L424.2609,135.6351 L420.5989,135.6531 L416.0809,126.7951 L410.8299,126.8211 L410.8749,135.7021 L407.4719,135.7201 L407.3579,113.3551 Z M443.2368,132.2972 L437.0298,116.0582 L437.1288,135.5692 L434.0488,135.5862 L433.9358,113.2212 L439.0568,113.1952 L445.0678,128.8852 L450.9508,113.1342 L456.0728,113.1092 L456.1858,135.4732 L452.7828,135.4902 L452.6838,115.9462 L446.5748,132.2802 L443.2368,132.2972 Z M471.2451,126.7757 L478.7321,126.7377 L474.9151,115.3807 L471.2451,126.7757 Z M472.6341,113.0257 L477.5921,113.0007 L485.1601,135.3267 L481.6281,135.3437 L479.6211,129.3577 L470.3831,129.4047 L468.4361,135.4117 L465.3571,135.4267 L472.6341,113.0257 Z M506.9727,135.2155 L497.4817,117.1465 L497.5737,135.2635 L494.3327,135.2795 L494.2187,112.9155 L498.7567,112.8925 L508.2797,131.0275 L508.1877,112.8445 L511.3967,112.8285 L511.5097,135.1925 L506.9727,135.2155 Z M521.8565,123.925 C521.8355,119.777 522.6355,116.813 524.2585,115.032 C525.8805,113.252 528.1615,112.355 531.1005,112.34 C533.7575,112.326 535.8025,112.862 537.2335,113.946 C538.6665,115.03 539.5175,116.814 539.7895,119.298 L536.3215,119.315 C536.1185,117.652 535.5945,116.531 534.7485,115.952 C533.9025,115.373 532.6915,115.088 531.1145,115.096 C529.3425,115.105 527.9295,115.673 526.8775,116.802 C525.8235,117.93 525.3035,119.781 525.3175,122.352 L525.3325,125.367 C525.3455,127.916 525.8725,129.782 526.9165,130.966 C527.9595,132.149 529.3885,132.736 531.2035,132.727 C532.7375,132.719 533.9295,132.432 534.7805,131.866 C535.6315,131.3 536.1715,130.217 536.4015,128.617 L539.8695,128.599 C539.5795,131.042 538.7235,132.797 537.3025,133.863 C535.8815,134.929 533.8535,135.468 531.2175,135.48119 C528.2785,135.496 525.9895,134.623 524.3485,132.859 C522.7085,131.095 521.8775,128.118 521.8565,123.925 M549.7382,112.6346 L563.7722,112.5626 L563.7862,115.3496 L553.1562,115.4036 L553.1902,122.1786 L562.1672,122.1336 L562.1812,124.8876 L553.2042,124.9326 L553.2402,132.1926 L564.0332,132.1386 L564.0472,134.9266 L549.8512,134.9986 L549.7382,112.6346 Z" id="Combined-Shape" fill="#121E28"></path>
            <path d="M71.6883,3.69482223e-13 C72.5513,3.69482223e-13 73.2503,0.699 73.2503,1.562 L73.2503,58.6 C73.2503,64.863 70.2763,70.866 65.2743,74.662 L53.2143,83.816 C50.8303,85.625 49.4043,88.489 49.4043,91.477 L49.4043,143.513 C49.4043,144.377 48.7053,145.075 47.8423,145.075 L26.9433,145.075 C26.0793,145.075 25.3803,144.377 25.3803,143.513 L25.3803,114.103 C25.3803,111.513 25.8873,108.95 26.8613,106.58 C27.3133,105.428 27.8753,104.332 28.5323,103.29 C29.8073,101.289 31.4383,99.495 33.3563,98.042 L45.4163,88.887 C47.8013,87.078 49.2263,84.214 49.2263,81.226 L49.2263,1.562 C49.2263,0.699 49.9253,3.69482223e-13 50.7883,3.69482223e-13 L71.6883,3.69482223e-13 Z M116.5018,21.2693 C117.3648,21.2693 118.0638,21.9683 118.0638,22.8313 L118.0638,28.0393 C118.0638,34.3023 115.0898,40.3043 110.0878,44.1003 L98.0278,53.2553 C95.6438,55.0503 94.2178,57.9143 94.2178,60.9163 L94.2178,123.1483 C94.2178,124.0113 93.5188,124.7103 92.6558,124.7103 L71.7568,124.7103 C70.8928,124.7103 70.1938,124.0113 70.1938,123.1483 L70.1938,83.5423 C70.1938,77.2653 73.1678,71.2633 78.1698,67.4803 L90.2298,58.3263 C92.6148,56.5173 94.0398,53.6533 94.0398,50.6653 L94.0398,22.8313 C94.0398,21.9683 94.7388,21.2693 95.6018,21.2693 L116.5018,21.2693 Z M24.682,52.6248 C25.545,52.6248 26.244,53.3238 26.244,54.1878 L26.244,94.3138 C26.244,96.7808 25.751,99.2058 24.846,101.4678 C24.394,102.6048 23.846,103.6878 23.188,104.7148 C21.845,106.8808 20.05,108.7988 17.912,110.3478 L3.481,120.8998 C2.782,121.4078 2.111,121.1608 1.85,121.0378 C1.59,120.8998 1,120.5028 1,119.6398 L1,54.1878 C1,53.3238 1.699,52.6248 2.563,52.6248 L24.682,52.6248 Z M138.2639,24.9413 C138.5789,24.9413 138.8399,25.0513 138.9769,25.1193 C139.2369,25.2433 139.8539,25.6413 139.8539,26.5183 L139.8539,85.0503 C139.8539,85.9133 139.1409,86.6113 138.2919,86.6113 L117.3789,86.6113 C116.5149,86.6113 115.8159,85.9133 115.8159,85.0503 L115.8159,51.6653 C115.8159,45.4023 118.8039,39.3863 123.7919,35.6043 L137.3319,25.2713 C137.6609,25.0243 137.9899,24.9413 138.2639,24.9413 Z" id="Combined-Shape" fill="#642127"></path>
        </g>
    </g>
</svg>